<svg xmlns="http://www.w3.org/2000/svg" viewBox="0 0 382 130" width="382" height="130" role="img" aria-label="Diego Camacho — Fotografía · Video">
<title>Diego Camacho — firma horizontal</title>
<rect width="382" height="130" fill="#262320"/>
<g transform="translate(40,33.0) scale(0.56)"><path d="M42,20 C58,17 70,28 71,44 C72,61 63,76 45,78 C27,80 14,68 13,50 C12,33 25,23 42,20 Z" fill="#CFC4B0"/><path d="M60,26 C75,24 86,35 87,50 C88,66 79,79 62,81 C46,83 34,72 33,56 C32,41 44,28 60,26 Z" fill="#C98A5E" opacity="0.85" style="mix-blend-mode:screen"/></g>
<g transform="translate(122.0,74)" fill="#F2EEE6"><path transform="translate(0.00,0) scale(0.01700,-0.01700)" d="M1226 688Q1226 972 1050.5 1109.0Q875 1246 570 1246H303V1340H619Q881 1340 1054.5 1271.0Q1228 1202 1314.0 1062.0Q1400 922 1400 710Q1400 485 1298.0 326.5Q1196 168 1019.5 84.0Q843 0 621 0H303V94H592Q782 94 924.5 155.0Q1067 216 1146.5 347.0Q1226 478 1226 688ZM85 0V39L243 91V1249L85 1301V1340H403V0Z"/><path transform="translate(25.42,0) scale(0.01700,-0.01700)" d="M267 1181Q214 1181 180.5 1215.5Q147 1250 147 1300Q147 1350 180.5 1384.5Q214 1419 267 1419Q320 1419 353.5 1384.5Q387 1350 387 1300Q387 1250 353.5 1215.5Q320 1181 267 1181ZM356 872 350 710V85L505 37V0H52V37L204 85V686Q193 698 169.5 712.5Q146 727 116.5 741.0Q87 755 56 764V795L338 872Z"/><path transform="translate(34.49,0) scale(0.01700,-0.01700)" d="M474 872Q571 872 642.0 829.0Q713 786 755.5 703.5Q798 621 808 502H196L198 569L712 593L644 551Q637 623 615.5 677.5Q594 732 556.0 762.5Q518 793 459 793Q389 793 336.0 754.5Q283 716 253.5 642.0Q224 568 224 461Q224 350 267.5 269.0Q311 188 389.0 144.0Q467 100 571 100Q609 100 645.5 110.0Q682 120 718.0 140.0Q754 160 788 189L813 162Q763 100 711.0 59.5Q659 19 601.0 -0.5Q543 -20 476 -20Q360 -20 269.5 36.5Q179 93 127.0 191.0Q75 289 75 414Q75 540 123.0 644.0Q171 748 260.5 810.0Q350 872 474 872Z"/><path transform="translate(49.44,0) scale(0.01700,-0.01700)" d="M423 -530Q328 -530 253.0 -514.5Q178 -499 126.0 -469.0Q74 -439 47.0 -395.5Q20 -352 20 -295Q20 -255 41.0 -219.0Q62 -183 106.5 -152.0Q151 -121 219.5 -95.5Q288 -70 384 -50H435V-74Q332 -91 273.0 -121.5Q214 -152 189.5 -193.0Q165 -234 165 -283Q165 -338 194.5 -378.0Q224 -418 285.5 -439.0Q347 -460 443 -460Q536 -460 606.5 -432.0Q677 -404 716.5 -357.0Q756 -310 756 -255Q756 -216 738.0 -189.0Q720 -162 680.5 -143.5Q641 -125 576.5 -114.5Q512 -104 418 -98Q324 -92 263.5 -74.5Q203 -57 169.0 -30.5Q135 -4 121.5 29.0Q108 62 108 98Q108 166 171.0 213.0Q234 260 341 282L366 264Q312 257 283.0 230.5Q254 204 254 160Q254 136 262.5 116.5Q271 97 296.5 82.0Q322 67 374.0 56.5Q426 46 513 40Q600 34 671.0 18.5Q742 3 792.5 -26.0Q843 -55 870.5 -99.0Q898 -143 898 -206Q898 -290 840.5 -364.0Q783 -438 676.5 -484.0Q570 -530 423 -530ZM429 244Q331 244 251.0 284.5Q171 325 124.5 396.0Q78 467 78 557Q78 650 124.5 721.0Q171 792 251.0 832.0Q331 872 429 872Q503 872 566.5 849.0Q630 826 678.0 783.5Q726 741 753.0 684.0Q780 627 780 559Q780 467 733.5 395.5Q687 324 607.5 284.0Q528 244 429 244ZM437 311Q523 311 571.5 374.0Q620 437 620 549Q620 668 565.5 736.5Q511 805 421 805Q336 805 287.0 742.5Q238 680 238 567Q238 449 292.5 380.0Q347 311 437 311ZM552 801 520 858Q585 848 638.0 848.5Q691 849 734.5 854.5Q778 860 816.0 866.0Q854 872 888 872Q923 872 941.5 853.0Q960 834 960 795Q960 758 935.0 732.5Q910 707 875 707Q847 707 821.5 721.5Q796 736 763.0 755.0Q730 774 679.5 788.0Q629 802 552 801Z"/><path transform="translate(65.59,0) scale(0.01700,-0.01700)" d="M508 57Q583 57 642.0 93.5Q701 130 735.0 206.5Q769 283 769 402Q769 530 735.5 617.5Q702 705 642.0 750.0Q582 795 501 795Q426 795 367.0 758.5Q308 722 274.0 645.5Q240 569 240 450Q240 323 273.5 235.0Q307 147 367.5 102.0Q428 57 508 57ZM502 -20Q376 -20 279.5 35.5Q183 91 129.0 189.5Q75 288 75 416Q75 548 131.5 651.0Q188 754 285.5 813.0Q383 872 507 872Q634 872 730.0 816.5Q826 761 880.0 663.0Q934 565 934 436Q934 304 877.5 201.0Q821 98 723.5 39.0Q626 -20 502 -20Z"/><path transform="translate(90.29,0) scale(0.01700,-0.01700)" d="M851 70Q930 70 1002.0 82.5Q1074 95 1147 122L1101 85L1240 354H1293L1260 58Q1193 25 1081.0 2.5Q969 -20 843 -20Q676 -20 538.5 26.0Q401 72 301.5 160.0Q202 248 148.0 373.5Q94 499 94 658Q94 871 187.5 1029.0Q281 1187 457.0 1273.5Q633 1360 880 1360Q942 1360 1003.0 1352.5Q1064 1345 1149 1325L1095 1315L1220 1398H1238L1296 940L1250 931L1088 1230L1128 1190Q1044 1235 977.0 1251.5Q910 1268 833 1268Q692 1268 585.5 1230.5Q479 1193 408.0 1122.5Q337 1052 301.0 951.5Q265 851 265 725Q265 568 309.0 446.5Q353 325 432.0 241.0Q511 157 618.0 113.5Q725 70 851 70Z"/><path transform="translate(113.76,0) scale(0.01700,-0.01700)" d="M602 543 618 473Q500 446 425.0 418.5Q350 391 308.0 362.0Q266 333 249.5 300.5Q233 268 233 229Q233 161 273.5 125.0Q314 89 372 89Q419 89 458.0 113.0Q497 137 520.5 176.0Q544 215 544 260V620Q544 692 507.0 735.0Q470 778 385 778Q355 778 316.0 768.5Q277 759 240 740L291 786Q288 758 282.5 730.0Q277 702 269.5 680.0Q262 658 251 646Q235 629 211.0 621.0Q187 613 163 613Q132 613 114.0 627.5Q96 642 96 664Q96 695 126.5 729.5Q157 764 207.5 794.5Q258 825 320.0 844.0Q382 863 446 863Q533 863 587.0 836.5Q641 810 665.5 758.5Q690 707 690 632V175Q690 144 699.0 123.5Q708 103 725.5 92.5Q743 82 769 82Q792 82 818.5 91.0Q845 100 870 115V69Q829 24 783.5 3.0Q738 -18 699 -18Q651 -18 616.5 3.5Q582 25 564.0 65.5Q546 106 546 161L552 171Q539 115 503.5 72.0Q468 29 418.5 4.5Q369 -20 313 -20Q213 -20 148.0 36.0Q83 92 83 197Q83 253 105.5 299.0Q128 345 185.0 385.5Q242 426 343.5 464.5Q445 503 602 543Z"/><path transform="translate(128.45,0) scale(0.01700,-0.01700)" d="M348 689V85L493 37V0H50V37L202 85V674Q186 691 154.0 707.0Q122 723 54 745V770L297 872H318ZM884 634V85L1028 37V0H593V37L738 85V572Q738 626 714.5 662.0Q691 698 649.5 716.0Q608 734 554 734Q486 734 422.5 708.0Q359 682 335 642L298 679Q348 732 392.0 769.0Q436 806 479.0 828.5Q522 851 566.5 861.5Q611 872 661 872Q742 872 791.0 837.0Q840 802 862.0 747.5Q884 693 884 634ZM1420 575V85L1574 37V0H1129V37L1274 85V572Q1274 627 1250.5 662.5Q1227 698 1185.5 716.0Q1144 734 1090 734Q1022 734 958.5 708.0Q895 682 871 642L834 679Q884 732 928.0 769.0Q972 806 1015.0 828.5Q1058 851 1102.5 861.5Q1147 872 1197 872Q1316 872 1368.0 794.5Q1420 717 1420 575Z"/><path transform="translate(155.50,0) scale(0.01700,-0.01700)" d="M602 543 618 473Q500 446 425.0 418.5Q350 391 308.0 362.0Q266 333 249.5 300.5Q233 268 233 229Q233 161 273.5 125.0Q314 89 372 89Q419 89 458.0 113.0Q497 137 520.5 176.0Q544 215 544 260V620Q544 692 507.0 735.0Q470 778 385 778Q355 778 316.0 768.5Q277 759 240 740L291 786Q288 758 282.5 730.0Q277 702 269.5 680.0Q262 658 251 646Q235 629 211.0 621.0Q187 613 163 613Q132 613 114.0 627.5Q96 642 96 664Q96 695 126.5 729.5Q157 764 207.5 794.5Q258 825 320.0 844.0Q382 863 446 863Q533 863 587.0 836.5Q641 810 665.5 758.5Q690 707 690 632V175Q690 144 699.0 123.5Q708 103 725.5 92.5Q743 82 769 82Q792 82 818.5 91.0Q845 100 870 115V69Q829 24 783.5 3.0Q738 -18 699 -18Q651 -18 616.5 3.5Q582 25 564.0 65.5Q546 106 546 161L552 171Q539 115 503.5 72.0Q468 29 418.5 4.5Q369 -20 313 -20Q213 -20 148.0 36.0Q83 92 83 197Q83 253 105.5 299.0Q128 345 185.0 385.5Q242 426 343.5 464.5Q445 503 602 543Z"/><path transform="translate(170.19,0) scale(0.01700,-0.01700)" d="M546 872Q628 872 676.5 853.5Q725 835 746.5 808.0Q768 781 768 755Q768 727 756.5 706.0Q745 685 724.0 673.5Q703 662 676 662Q647 662 624.0 674.5Q601 687 581.5 705.5Q562 724 542.5 742.5Q523 761 500.0 773.5Q477 786 448 786Q393 786 341.5 753.5Q290 721 256.5 654.0Q223 587 223 485Q223 367 263.0 280.5Q303 194 376.0 147.0Q449 100 548 100Q603 100 655.5 123.0Q708 146 757 189L781 162Q733 100 683.0 59.5Q633 19 577.0 -0.5Q521 -20 456 -20Q344 -20 258.0 35.5Q172 91 123.5 186.5Q75 282 75 402Q75 497 106.0 582.0Q137 667 196.5 732.0Q256 797 344.0 834.5Q432 872 546 872Z"/><path transform="translate(184.28,0) scale(0.01700,-0.01700)" d="M602 37 757 85V558Q757 612 734.0 651.5Q711 691 666.0 712.5Q621 734 556 734Q477 734 409.5 704.5Q342 675 316 634L277 666Q330 723 377.5 762.5Q425 802 470.5 826.0Q516 850 564.0 861.0Q612 872 665 872Q786 872 844.5 794.5Q903 717 903 549V85L1057 37V0H602ZM481 0H28V37L180 85V1218Q167 1234 146.0 1250.0Q125 1266 95.0 1282.5Q65 1299 26 1315V1335L316 1419H336L326 1259V85L481 37Z"/><path transform="translate(202.52,0) scale(0.01700,-0.01700)" d="M508 57Q583 57 642.0 93.5Q701 130 735.0 206.5Q769 283 769 402Q769 530 735.5 617.5Q702 705 642.0 750.0Q582 795 501 795Q426 795 367.0 758.5Q308 722 274.0 645.5Q240 569 240 450Q240 323 273.5 235.0Q307 147 367.5 102.0Q428 57 508 57ZM502 -20Q376 -20 279.5 35.5Q183 91 129.0 189.5Q75 288 75 416Q75 548 131.5 651.0Q188 754 285.5 813.0Q383 872 507 872Q634 872 730.0 816.5Q826 761 880.0 663.0Q934 565 934 436Q934 304 877.5 201.0Q821 98 723.5 39.0Q626 -20 502 -20Z"/></g>
<g transform="translate(122.0,96)" fill="#C98A5E"><path transform="translate(0.00,0) scale(0.01100,-0.01100)" d="M81 0V686H571V590H193V387H535V292H193V0Z"/><path transform="translate(8.26,0) scale(0.01100,-0.01100)" d="M392 -12Q286 -12 208.5 27.0Q131 66 89.5 145.0Q48 224 48 343Q48 463 89.5 541.5Q131 620 208.5 659.0Q286 698 392 698Q500 698 577.0 659.0Q654 620 695.5 541.5Q737 463 737 343Q737 224 695.5 145.0Q654 66 577.0 27.0Q500 -12 392 -12ZM392 83Q447 83 489.5 98.0Q532 113 561.5 144.0Q591 175 606.5 222.0Q622 269 622 331V353Q622 417 606.5 464.0Q591 511 561.5 542.0Q532 573 489.5 588.0Q447 603 392 603Q338 603 295.5 588.0Q253 573 223.5 542.0Q194 511 179.0 464.0Q164 417 164 353V331Q164 269 179.0 222.0Q194 175 223.5 144.0Q253 113 295.5 98.0Q338 83 392 83Z"/><path transform="translate(18.44,0) scale(0.01100,-0.01100)" d="M249 0V590H22V686H590V590H361V0Z"/><path transform="translate(26.71,0) scale(0.01100,-0.01100)" d="M392 -12Q286 -12 208.5 27.0Q131 66 89.5 145.0Q48 224 48 343Q48 463 89.5 541.5Q131 620 208.5 659.0Q286 698 392 698Q500 698 577.0 659.0Q654 620 695.5 541.5Q737 463 737 343Q737 224 695.5 145.0Q654 66 577.0 27.0Q500 -12 392 -12ZM392 83Q447 83 489.5 98.0Q532 113 561.5 144.0Q591 175 606.5 222.0Q622 269 622 331V353Q622 417 606.5 464.0Q591 511 561.5 542.0Q532 573 489.5 588.0Q447 603 392 603Q338 603 295.5 588.0Q253 573 223.5 542.0Q194 511 179.0 464.0Q164 417 164 353V331Q164 269 179.0 222.0Q194 175 223.5 144.0Q253 113 295.5 98.0Q338 83 392 83Z"/><path transform="translate(36.88,0) scale(0.01100,-0.01100)" d="M392 -12Q229 -12 141.5 74.0Q54 160 54 343Q54 463 95.0 541.5Q136 620 214.0 659.0Q292 698 404 698Q471 698 528.5 683.0Q586 668 629.5 637.5Q673 607 696.5 561.0Q720 515 720 452H606Q606 491 590.5 519.5Q575 548 547.5 567.0Q520 586 483.5 594.5Q447 603 406 603Q349 603 304.5 588.0Q260 573 230.0 542.0Q200 511 185.0 464.0Q170 417 170 353V332Q170 244 195.5 189.0Q221 134 271.5 108.5Q322 83 395 83Q464 83 511.0 103.0Q558 123 583.0 162.5Q608 202 608 261V271H377V364H720V0H639L628 82Q600 49 564.0 28.5Q528 8 485.5 -2.0Q443 -12 392 -12Z"/><path transform="translate(47.17,0) scale(0.01100,-0.01100)" d="M81 0V686H442Q515 686 563.0 660.0Q611 634 635.0 587.5Q659 541 659 479Q659 410 628.0 359.0Q597 308 540 284L683 0H561L431 265H193V0ZM193 359H433Q487 359 516.5 391.0Q546 423 546 480Q546 515 533.0 539.5Q520 564 495.0 577.0Q470 590 433 590H193Z"/><path transform="translate(56.65,0) scale(0.01100,-0.01100)" d="M6 0 275 686H418L688 0H568L507 159H182L121 0ZM218 254H470L393 455Q390 464 384.0 480.0Q378 496 371.5 515.0Q365 534 358.5 553.5Q352 573 347 589H341Q335 570 326.0 544.0Q317 518 308.5 494.0Q300 470 294 455Z"/><path transform="translate(65.83,0) scale(0.01100,-0.01100)" d="M81 0V686H571V590H193V387H535V292H193V0Z"/><path transform="translate(74.10,0) scale(0.01100,-0.01100)" d="M81 0V686H193V0ZM88 736 172 868H288L289 865L180 736Z"/><path transform="translate(78.65,0) scale(0.01100,-0.01100)" d="M6 0 275 686H418L688 0H568L507 159H182L121 0ZM218 254H470L393 455Q390 464 384.0 480.0Q378 496 371.5 515.0Q365 534 358.5 553.5Q352 573 347 589H341Q335 570 326.0 544.0Q317 518 308.5 494.0Q300 470 294 455Z"/><path transform="translate(91.63,0) scale(0.01100,-0.01100)" d="M110 298V415H223V298Z"/><path transform="translate(100.63,0) scale(0.01100,-0.01100)" d="M263 0 10 686H131L301 207Q306 195 311.0 179.0Q316 163 321.0 148.5Q326 134 330 123H335Q339 134 344.0 148.0Q349 162 354.0 177.0Q359 192 364 206L532 686H649L395 0Z"/><path transform="translate(109.42,0) scale(0.01100,-0.01100)" d="M81 0V686H193V0Z"/><path transform="translate(113.97,0) scale(0.01100,-0.01100)" d="M81 0V686H346Q452 686 527.0 649.5Q602 613 642.5 537.5Q683 462 683 343Q683 225 642.5 149.0Q602 73 527.0 36.5Q452 0 346 0ZM193 96H345Q398 96 439.5 110.0Q481 124 509.5 153.0Q538 182 552.5 226.5Q567 271 567 332V353Q567 415 552.5 459.5Q538 504 509.5 533.0Q481 562 439.5 576.0Q398 590 345 590H193Z"/><path transform="translate(123.55,0) scale(0.01100,-0.01100)" d="M81 0V686H613V590H193V399H569V303H193V96H619V0Z"/><path transform="translate(132.51,0) scale(0.01100,-0.01100)" d="M392 -12Q286 -12 208.5 27.0Q131 66 89.5 145.0Q48 224 48 343Q48 463 89.5 541.5Q131 620 208.5 659.0Q286 698 392 698Q500 698 577.0 659.0Q654 620 695.5 541.5Q737 463 737 343Q737 224 695.5 145.0Q654 66 577.0 27.0Q500 -12 392 -12ZM392 83Q447 83 489.5 98.0Q532 113 561.5 144.0Q591 175 606.5 222.0Q622 269 622 331V353Q622 417 606.5 464.0Q591 511 561.5 542.0Q532 573 489.5 588.0Q447 603 392 603Q338 603 295.5 588.0Q253 573 223.5 542.0Q194 511 179.0 464.0Q164 417 164 353V331Q164 269 179.0 222.0Q194 175 223.5 144.0Q253 113 295.5 98.0Q338 83 392 83Z"/></g>
</svg>